<?xml version="1.0" standalone="no"?>
<svg viewBox="0 0 200 200" xmlns="http://www.w3.org/2000/svg">
  <path fill="#24A148" d="M19.6,-35.8C28.3,-28.9,40.3,-29.6,46.4,-24.8C52.4,-20.1,52.4,-10.1,49.1,-1.9C45.8,6.2,39.1,12.5,32,15.3C24.9,18.2,17.5,17.8,12.1,28.9C6.7,39.9,3.3,62.6,-1.1,64.5C-5.6,66.5,-11.2,47.8,-19.9,38.6C-28.7,29.5,-40.6,29.9,-50.5,25C-60.5,20.2,-68.6,10.1,-66.1,1.4C-63.7,-7.2,-50.6,-14.5,-45.4,-27.5C-40.1,-40.5,-42.6,-59.3,-36.3,-67.6C-30.1,-75.9,-15,-73.7,-4.8,-65.4C5.4,-57.1,10.9,-42.7,19.6,-35.8Z" transform="translate(100 100)" />
</svg>
